<?xml version="1.0" encoding="iso-8859-1"?>
<!-- Generator: Adobe Illustrator 16.0.0, SVG Export Plug-In . SVG Version: 6.00 Build 0)  -->
<!DOCTYPE svg PUBLIC "-//W3C//DTD SVG 1.1//EN" "http://www.w3.org/Graphics/SVG/1.1/DTD/svg11.dtd">
<svg version="1.1" id="Capa_1" xmlns="http://www.w3.org/2000/svg" xmlns:xlink="http://www.w3.org/1999/xlink" x="0px" y="0px"
	 width="64px" height="64px" viewBox="0 0 64 64" style="enable-background:new 0 0 64 64;" xml:space="preserve">
<g>
	<g>
		<g id="circle_59_">
			<g>
				<path d="M32,0C14.327,0,0,14.327,0,32s14.327,32,32,32s32-14.327,32-32S49.673,0,32,0z M32,62C15.432,62,2,48.568,2,32
					C2,15.432,15.432,2,32,2c16.568,0,30,13.432,30,30C62,48.568,48.568,62,32,62z"/>
			</g>
		</g>
		<g id="Ellipse_2">
			<g>
				<path d="M35,21c-5.739,0-10.446,4.396-10.95,10.005C24.033,31.005,24.017,31,24,31c-3.313,0-6,2.688-6,6
					c0,2.973,2.165,5.421,5,5.898V43h13v-0.051C41.605,42.443,46,37.736,46,32C46,25.925,41.075,21,35,21z M43.914,33.184
					c-0.025,0.192-0.051,0.385-0.087,0.571c-0.022,0.116-0.056,0.229-0.082,0.345c-0.04,0.164-0.078,0.33-0.126,0.49
					c-0.037,0.121-0.08,0.239-0.122,0.357c-0.052,0.148-0.103,0.299-0.162,0.443c-0.05,0.121-0.104,0.24-0.161,0.359
					c-0.062,0.136-0.125,0.271-0.193,0.402c-0.063,0.121-0.131,0.238-0.199,0.355c-0.072,0.123-0.145,0.245-0.223,0.364
					c-0.076,0.118-0.156,0.233-0.236,0.348c-0.079,0.11-0.16,0.22-0.244,0.326c-0.09,0.115-0.182,0.228-0.277,0.336
					c-0.085,0.099-0.172,0.193-0.262,0.288c-0.104,0.109-0.208,0.217-0.316,0.321c-0.089,0.085-0.181,0.167-0.272,0.248
					c-0.118,0.104-0.236,0.206-0.359,0.305c-0.089,0.071-0.183,0.138-0.274,0.205c-0.133,0.099-0.268,0.196-0.405,0.286
					c-0.087,0.057-0.177,0.107-0.267,0.162c-0.15,0.091-0.302,0.183-0.459,0.266c-0.076,0.04-0.154,0.074-0.232,0.111
					c-0.176,0.086-0.352,0.173-0.532,0.246c-0.041,0.018-0.083,0.029-0.124,0.046c-0.725,0.286-1.494,0.483-2.296,0.573V41H24
					c-2.209,0-4-1.791-4-4s1.791-4,4-4h2c0-0.678-0.014-0.521,0-1c0.015-0.505,0.052-0.997,0.132-1.479
					c0.001-0.004,0.001-0.009,0.002-0.014c0.046-0.275,0.105-0.547,0.176-0.813c0.002-0.011,0.005-0.021,0.008-0.032
					c0.07-0.26,0.151-0.515,0.243-0.765c0.007-0.018,0.013-0.036,0.02-0.054c0.091-0.241,0.191-0.478,0.302-0.709
					c0.012-0.025,0.025-0.052,0.037-0.077c0.108-0.222,0.225-0.438,0.35-0.647c0.021-0.035,0.042-0.068,0.063-0.104
					c0.122-0.199,0.25-0.393,0.387-0.581c0.031-0.043,0.063-0.085,0.095-0.127c0.132-0.177,0.27-0.349,0.415-0.514
					c0.044-0.051,0.089-0.099,0.134-0.148c0.14-0.153,0.283-0.303,0.433-0.445c0.059-0.057,0.12-0.109,0.18-0.164
					c0.144-0.13,0.29-0.257,0.442-0.378c0.075-0.06,0.153-0.115,0.23-0.173c0.145-0.107,0.291-0.214,0.442-0.312
					c0.093-0.062,0.19-0.116,0.285-0.174c0.144-0.086,0.287-0.173,0.436-0.252c0.112-0.059,0.228-0.11,0.342-0.165
					c0.14-0.066,0.279-0.135,0.423-0.194c0.131-0.054,0.268-0.099,0.402-0.146c0.134-0.047,0.267-0.1,0.404-0.142
					c0.153-0.047,0.312-0.082,0.469-0.121c0.125-0.03,0.246-0.066,0.373-0.092c0.187-0.037,0.375-0.061,0.564-0.086
					c0.104-0.014,0.205-0.035,0.311-0.045C34.396,23.016,34.695,23,35,23c4.971,0,9,4.029,9,9c0,0.301-0.016,0.598-0.045,0.891
					C43.945,32.989,43.926,33.086,43.914,33.184z"/>
			</g>
		</g>
	</g>
</g>
<g>
</g>
<g>
</g>
<g>
</g>
<g>
</g>
<g>
</g>
<g>
</g>
<g>
</g>
<g>
</g>
<g>
</g>
<g>
</g>
<g>
</g>
<g>
</g>
<g>
</g>
<g>
</g>
<g>
</g>
</svg>
